<svg xmlns="http://www.w3.org/2000/svg" viewBox="0 0 240 240" fill="none" role="img">
  <rect width="240" height="240" rx="16" fill="#F7F8FA"/>
  <ellipse cx="120" cy="214" rx="58" ry="10" fill="#000000" opacity="0.06"/>
  <path d="M60 70h96a20 20 0 0 1 20 20v18a14 14 0 0 1-14 14H96l-8 18h-16a24 24 0 0 1-24-24V88a18 18 0 0 1 18-18z" fill="#FFC107"/>
  <path d="M60 70h96a20 20 0 0 1 20 20v6H60z" fill="#c69605" opacity="0.5"/>
  <rect x="150" y="98" width="58" height="14" rx="7" fill="#374151"/>
  <rect x="200" y="100" width="20" height="10" rx="3" fill="#9AA3AE"/>
  <path d="M78 120h34l-8 46a16 16 0 0 1-16 13 16 16 0 0 1-16-16z" fill="#374151"/>
  <rect x="66" y="176" width="48" height="20" rx="6" fill="#c69605"/>
  <circle cx="70" cy="96" r="6" fill="#374151"/>

</svg>
